<?xml version="1.0" standalone="no"?><!DOCTYPE svg PUBLIC "-//W3C//DTD SVG 1.1//EN" "http://www.w3.org/Graphics/SVG/1.1/DTD/svg11.dtd"><svg t="1731380487963" class="icon" viewBox="0 0 1024 1024" version="1.1" xmlns="http://www.w3.org/2000/svg" p-id="4352" xmlns:xlink="http://www.w3.org/1999/xlink" width="200" height="200"><path d="M519.91015625 905.92578125c-213.57421875 0-387.59765625-174.0234375-387.59765625-387.59765625s174.0234375-387.59765625 387.59765625-387.59765625S907.5078125 304.75390625 907.5078125 518.328125s-174.0234375 387.59765625-387.59765625 387.59765625z m0-727.734375c-188.26171875 0-340.13671875 153.45703125-340.13671875 340.13671875 0 188.26171875 151.875 340.13671875 340.13671875 340.13671875s340.13671875-151.875 340.13671875-340.13671875c0-186.6796875-151.875-340.13671875-340.13671875-340.13671875z" fill="#737373" p-id="4353"></path><path d="M325.3203125 402.83984375a61.69921875 61.69921875 0 1 0 123.3984375 0 61.69921875 61.69921875 0 1 0-123.3984375 0zM592.68359375 402.83984375a61.69921875 61.69921875 0 1 0 123.3984375 0 61.69921875 61.69921875 0 1 0-123.3984375 0zM519.91015625 784.109375c-137.63671875 0-249.9609375-107.578125-249.9609375-240.46875v-23.73046875h498.33984375v23.73046875c1.58203125 132.890625-110.7421875 240.46875-248.37890625 240.46875zM318.9921875 568.953125c12.65625 94.921875 98.0859375 169.27734375 200.91796875 169.27734375s188.26171875-74.35546875 200.91796875-169.27734375H318.9921875z" fill="#737373" p-id="4354"></path></svg>