<?xml version="1.0" standalone="no"?><!DOCTYPE svg PUBLIC "-//W3C//DTD SVG 1.1//EN" "http://www.w3.org/Graphics/SVG/1.1/DTD/svg11.dtd"><svg t="1731316701236" class="icon" viewBox="0 0 1024 1024" version="1.1" xmlns="http://www.w3.org/2000/svg" p-id="8686" data-spm-anchor-id="a313x.search_index.0.i6.55c43a81gCnggG" xmlns:xlink="http://www.w3.org/1999/xlink" width="200" height="200"><path d="M511.3 56.9c-247 0-448 201-448 448s201 448 448 448 448-201 448-448-200.9-448-448-448zM469 607.1l-59.9-59.9v-84.7l59.9-59.9h84.7l59.9 59.9v84.7l-59.9 59.9H469zM634.5 561l3.6-3.6 248.3-248.3c30.7 58.6 48.3 125.1 48.3 195.8 0 35.3-4.8 69.4-13 102.2H588.5l46-46.1z m239.2-273.9L638.1 522.7V100.9c99.4 31.3 182.8 98.6 235.6 186.2zM613.6 94.5v333.3l-46.1-46.1-3.6-3.6-248.3-248.3c58.6-30.7 125.1-48.3 195.8-48.3 35.2 0 69.4 4.8 102.2 13z m-320.1 48l235.6 235.6H107.4c31.2-99.4 98.5-182.7 186.1-235.6zM100.9 402.7h333.3l-46.1 46.1-3.6 3.6-248.2 248.3C105.6 642.1 88 575.6 88 504.9c-0.1-35.3 4.7-69.4 12.9-102.2zM149 722.8l235.6-235.6v421.7c-99.4-31.3-182.8-98.5-235.6-186.1z m260.1 192.5V582l46.1 46.1 3.6 3.6L707.1 880c-58.6 30.7-125.1 48.3-195.8 48.3-35.2 0-69.4-4.8-102.2-13z m320.1-48L493.6 631.7h421.7c-31.3 99.4-98.5 182.7-186.1 235.6z" fill="#ffffff" p-id="8687"></path></svg>