<?xml version="1.0" standalone="no"?><!DOCTYPE svg PUBLIC "-//W3C//DTD SVG 1.1//EN" "http://www.w3.org/Graphics/SVG/1.1/DTD/svg11.dtd"><svg t="1731317049080" class="icon" viewBox="0 0 1024 1024" version="1.1" xmlns="http://www.w3.org/2000/svg" p-id="16038" xmlns:xlink="http://www.w3.org/1999/xlink" width="200" height="200"><path d="M497.152 149.430857a36.571429 36.571429 0 0 1 29.696 0l329.142857 146.285714 0.438857 0.219429 0.804572 0.365714 0.329143 0.146286 0.365714 0.219429 1.024 0.585142 0.841143 0.438858 0.256 0.182857 0.731428 0.365714 1.718857 1.28 0.731429 0.475429 0.256 0.219428 0.512 0.365714 0.329143 0.292572 0.292571 0.219428 0.877715 0.804572 0.914285 0.768 0.146286 0.182857 0.438857 0.438857 0.402286 0.402286 0.841143 0.950857 0.950857 1.024 0.182857 0.256 0.292571 0.365714 0.365715 0.475429 0.694857 0.987428 1.28 1.792 0.365714 0.658286 0.219429 0.292572 0.402285 0.804571 0.621715 1.060571 0.182857 0.329143 0.182857 0.365715 0.329143 0.768 0.256 0.475428 0.256 0.768 0.438857 0.950857 0.109714 0.329143 0.219429 0.475429 0.182857 0.658285 0.292571 0.804572 0.182858 0.768 0.256 0.768 0.109714 0.548571 0.146286 0.365715 0.146285 0.950857 0.182857 0.658285 0.036572 0.512 0.182857 0.914286 0.036571 0.548572 0.109715 0.548571 0.036571 0.804571 0.146286 0.731429-0.036572 0.694857 0.109715 0.694857-0.036572 0.548572L877.714286 329.142857v365.714286a36.571429 36.571429 0 0 1-21.723429 33.426286l-329.142857 146.285714-0.804571 0.256-0.914286 0.438857-0.365714 0.109714-0.438858 0.219429-0.694857 0.182857-0.768 0.292571-0.804571 0.182858-0.731429 0.256-0.585143 0.109714-0.365714 0.146286-0.950857 0.146285-0.621714 0.182857-0.548572 0.036572-0.877714 0.182857-0.585143 0.036571-0.512 0.109715-0.841143 0.036571-0.731428 0.146286-0.694857-0.036572-0.658286 0.109715-0.585143-0.036572L512 877.714286l-0.804571-0.036572h-0.548572l-0.694857-0.073143h-0.658286l-0.768-0.109714h-0.804571l-0.548572-0.146286h-0.548571l-0.914286-0.219428-0.512-0.036572-0.658285-0.182857-0.914286-0.146285-0.402286-0.146286-0.548571-0.109714-0.768-0.256-0.731429-0.182858-0.841143-0.292571-0.658285-0.182857-0.475429-0.219429-1.28-0.548571-0.768-0.256-329.142857-146.285714A36.571429 36.571429 0 0 1 146.285714 694.857143V329.142857l0.036572-0.804571v-0.548572l0.073143-0.694857v-0.658286l0.109714-0.768v-0.804571l0.146286-0.548571v-0.548572l0.219428-0.914286 0.036572-0.512 0.182857-0.658285 0.146285-0.914286 0.146286-0.402286 0.109714-0.548571 0.256-0.768 0.182858-0.731429 0.292571-0.841143 0.182857-0.658285 0.219429-0.475429 0.548571-1.28 0.256-0.768 0.256-0.475428 0.329143-0.731429 0.182857-0.402286 0.182857-0.329143 0.621715-1.060571 0.365714-0.804571 0.256-0.292572 0.365714-0.658286 1.28-1.792 0.438857-0.731428 0.256-0.256 0.365715-0.475429 0.292571-0.365714 0.182857-0.256 0.841143-0.914286 0.731429-0.877714 0.219428-0.182857 0.365714-0.402286 0.475429-0.438857 0.950857-0.841143 0.987429-0.914286 0.292571-0.219428 0.329143-0.256 0.512-0.402286 0.987429-0.694857 1.755428-1.243429 0.694857-0.402285 0.256-0.182857 0.841143-0.438858 1.024-0.585142 0.365714-0.219429 0.365715-0.146286 0.768-0.365714 0.438857-0.219429 329.142857-146.285714zM804.571429 385.389714l-256 113.773715v285.696l256-113.773715v-285.696z m-585.142858 0v285.696l256 113.773715v-285.696l-256-113.773715z m292.571429-162.523428L272.859429 329.142857 512 435.382857 751.104 329.142857 512 222.866286z" fill="#ffffff" fill-opacity=".65" p-id="16039"></path></svg>