<?xml version="1.0" standalone="no"?><!DOCTYPE svg PUBLIC "-//W3C//DTD SVG 1.1//EN" "http://www.w3.org/Graphics/SVG/1.1/DTD/svg11.dtd"><svg t="1731380598502" class="icon" viewBox="0 0 1024 1024" version="1.1" xmlns="http://www.w3.org/2000/svg" p-id="6555" xmlns:xlink="http://www.w3.org/1999/xlink" width="200" height="200"><path d="M150.954667 145.450667a32 32 0 0 0-5.504 44.928c170.709333 218.133333 299.797333 381.824 390.464 495.253333s140.032 173.909333 161.621333 195.498667c62.229333 62.208 164.053333 62.208 226.261333 0a32 32 0 0 0 0-45.248 32 32 0 0 0-45.248 0 95.509333 95.509333 0 0 1-135.765333 0c-11.733333-11.733333-66.453333-77.098667-156.864-190.208-90.410667-113.130667-219.413333-276.693333-390.037333-494.72a32 32 0 0 0-44.928-5.504zM810.666667 608c-87.978667 0-160 72.021333-160 160 0 87.978667 72.021333 160 160 160 87.978667 0 160-72.021333 160-160 0-87.978667-72.021333-160-160-160z m0 64c53.397333 0 96 42.602667 96 96s-42.602667 96-96 96a95.509333 95.509333 0 0 1-96-96c0-53.397333 42.602667-96 96-96z m40.170666-533.12a32 32 0 0 0-21.333333 11.989333c-171.306667 217.92-300.672 381.504-391.253333 494.677334-90.581333 113.152-145.344 178.624-157.034667 190.336a95.509333 95.509333 0 0 1-135.765333 0 32 32 0 0 0-45.226667 0 32 32 0 0 0 0 45.226666c62.208 62.229333 164.010667 62.229333 226.24 0 21.610667-21.610667 70.976-82.133333 161.792-195.562666 90.816-113.450667 220.181333-277.12 391.530667-495.082667a32 32 0 0 0-5.376-44.970667 32 32 0 0 0-23.573334-6.613333zM213.333333 608c-87.978667 0-160 72.021333-160 160 0 87.978667 72.021333 160 160 160 87.978667 0 160-72.021333 160-160 0-87.978667-72.021333-160-160-160z m0 64c53.397333 0 96 42.602667 96 96s-42.602667 96-96 96A95.509333 95.509333 0 0 1 117.333333 768c0-53.397333 42.602667-96 96-96z" p-id="6556" fill="#737373"></path></svg>