<?xml version="1.0" standalone="no"?><!DOCTYPE svg PUBLIC "-//W3C//DTD SVG 1.1//EN" "http://www.w3.org/Graphics/SVG/1.1/DTD/svg11.dtd"><svg t="1731380661889" class="icon" viewBox="0 0 1024 1024" version="1.1" xmlns="http://www.w3.org/2000/svg" p-id="9254" xmlns:xlink="http://www.w3.org/1999/xlink" width="200" height="200"><path d="M995.328 476.900766c-21.068255-243.47234-153.164255-394.457872-351.166638-451.235404-154.689362-44.358809-338.595404-21.090043-411.996596 43.421957l28.759149 32.724426C321.797447 48.280511 490.539574 26.929021 632.134809 67.540426c181.139064 51.962553 300.315234 188.154553 319.793021 413.107744l43.40017-3.747404z" fill="#737373" p-id="9255"></path><path d="M468.425532 457.531915c-36.057872 0-65.361702 29.325617-65.361702 65.361702s29.30383 65.361702 65.361702 65.361702c36.036085 0 65.361702-29.325617 65.361702-65.361702s-29.325617-65.361702-65.361702-65.361702zM228.765957 457.531915c-36.036085 0-65.361702 29.325617-65.361702 65.361702s29.325617 65.361702 65.361702 65.361702 65.361702-29.325617 65.361703-65.361702-29.325617-65.361702-65.361703-65.361702zM686.297872 457.531915c-36.036085 0-65.361702 29.325617-65.361702 65.361702s29.325617 65.361702 65.361702 65.361702 65.361702-29.325617 65.361702-65.361702-29.325617-65.361702-65.361702-65.361702z" fill="#737373" p-id="9256"></path><path d="M521.782468 874.038468l17.996255-3.333447c176.955915-32.746213 320.708085-176.040851 320.708086-354.391149 0-198.786723-179.962553-362.365277-403.020256-362.365276C234.408851 153.948596 54.468085 317.527149 54.468085 516.313872c0 178.328511 143.795745 321.688511 320.708085 354.434724l17.996256 3.333447 10.24 15.185702 54.075914 80.351319 64.294128-95.580596z m-75.340255 112.029958c5.032851-7.494809 16.994043-7.538383 22.157617 0.043574l-11.11149-16.492936-11.046127 16.449362z m11.02434-875.694298c246.261106 0 446.594723 182.097702 446.594724 405.939744 0 222.229787-186.062979 365.720511-356.352 397.246639l-65.122043 96.822468c-12.200851 18.083404-37.996936 18.235915-50.176 0l-65.14383-96.778894C196.978383 882.077957 10.893617 738.54366 10.893617 516.313872 10.893617 292.47183 211.227234 110.374128 457.466553 110.374128z" fill="#737373" p-id="9257"></path></svg>