<?xml version="1.0" standalone="no"?><!DOCTYPE svg PUBLIC "-//W3C//DTD SVG 1.1//EN" "http://www.w3.org/Graphics/SVG/1.1/DTD/svg11.dtd"><svg t="1731317581905" class="icon" viewBox="0 0 1024 1024" version="1.1" xmlns="http://www.w3.org/2000/svg" p-id="37432" xmlns:xlink="http://www.w3.org/1999/xlink" width="200" height="200"><path d="M771.24 281.39h-518.4c-15.84 0-28.8-12.96-28.8-28.8s12.96-28.8 28.8-28.8h518.4c15.84 0 28.8 12.96 28.8 28.8s-12.96 28.8-28.8 28.8zM771.24 540.74h-518.4c-15.84 0-28.8-12.96-28.8-28.8s12.96-28.8 28.8-28.8h518.4c15.84 0 28.8 12.96 28.8 28.8s-12.96 28.8-28.8 28.8zM771.24 799.79h-518.4c-15.84 0-28.8-12.96-28.8-28.8s12.96-28.8 28.8-28.8h518.4c15.84 0 28.8 12.96 28.8 28.8s-12.96 28.8-28.8 28.8z" fill="#ffffff" p-id="37433"></path></svg>