<?xml version="1.0" standalone="no"?><!DOCTYPE svg PUBLIC "-//W3C//DTD SVG 1.1//EN" "http://www.w3.org/Graphics/SVG/1.1/DTD/svg11.dtd"><svg t="1731380631096" class="icon" viewBox="0 0 1024 1024" version="1.1" xmlns="http://www.w3.org/2000/svg" p-id="8151" xmlns:xlink="http://www.w3.org/1999/xlink" width="200" height="200"><path d="M786.282667 273.066667v106.410666c26.88 6.762667 45.674667 30.549333 45.717333 57.813334V721.066667c0 49.493333-40.938667 89.6-91.434667 89.6h-457.173333a92.16 92.16 0 0 1-64.576-26.197334A88.917333 88.917333 0 0 1 192 721.066667V362.645333c0.021333-27.264 18.816-51.072 45.696-57.856v-31.786666C237.781333 240.042667 265.045333 213.312 298.666667 213.333333h426.666666a61.44 61.44 0 0 1 43.093334 17.472 59.306667 59.306667 0 0 1 17.877333 42.282667V273.066667zM237.696 362.666667v358.4c0 23.744 18.88 43.349333 43.029333 44.736l2.709334 0.085333h457.130666c24.192 0 44.181333-18.474667 45.632-42.197333l0.085334-2.602667V437.312a15.018667 15.018667 0 0 0-13.44-14.826667l-1.792-0.106666h-168.938667l-87.210667-71.210667a15.381333 15.381333 0 0 0-7.616-3.306667l-2.133333-0.170666H252.928a15.125333 15.125333 0 0 0-15.125333 13.205333l-0.106667 1.749333V362.666667z m382.293333 14.933333h120.576v-104.533333a15.018667 15.018667 0 0 0-13.461333-14.826667l-1.792-0.128H298.666667a15.125333 15.125333 0 0 0-15.104 13.205333l-0.128 1.749334v29.824h245.12l91.456 74.666666v0.042667z" fill="#737373" p-id="8152"></path></svg>