<?xml version="1.0" standalone="no"?><!DOCTYPE svg PUBLIC "-//W3C//DTD SVG 1.1//EN" "http://www.w3.org/Graphics/SVG/1.1/DTD/svg11.dtd"><svg t="1731380779750" class="icon" viewBox="0 0 1024 1024" version="1.1" xmlns="http://www.w3.org/2000/svg" p-id="16797" xmlns:xlink="http://www.w3.org/1999/xlink" width="200" height="200"><path d="M942.08 774.144 942.08 774.144c0-16.384-8.192-28.672-16.384-40.96-4.096-4.096-8.192-4.096-8.192-8.192l-159.744-122.88c-8.192-8.192-24.576-16.384-40.96-16.384-12.288 0-24.576 4.096-32.768 12.288l-45.056 45.056 0 0c-8.192 8.192-16.384 12.288-28.672 12.288-12.288 0-24.576-8.192-32.768-16.384-61.44-45.056-114.688-98.304-159.744-159.744-8.192-8.192-16.384-20.48-16.384-32.768 0-12.288 4.096-20.48 12.288-28.672l0 0 45.056-45.056c8.192-8.192 12.288-20.48 12.288-32.768 0-16.384-8.192-28.672-16.384-40.96L327.68 143.36C327.68 139.264 323.584 135.168 319.488 131.072 311.296 122.88 294.912 114.688 282.624 114.688 204.8 114.688 110.592 204.8 110.592 315.392c0 28.672 8.192 57.344 20.48 86.016l0 0c114.688 225.28 303.104 413.696 528.384 528.384l0 0c24.576 12.288 53.248 20.48 86.016 20.48C851.968 946.176 942.08 851.968 942.08 774.144 942.08 774.144 942.08 774.144 942.08 774.144zM741.376 905.216c-24.576 0-45.056-4.096-69.632-16.384 0 0-4.096 0-8.192-4.096-212.992-110.592-393.216-286.72-499.712-499.712 0-4.096 0-4.096-4.096-8.192C155.648 360.448 147.456 335.872 147.456 315.392c0-90.112 81.92-159.744 131.072-159.744 8.192 0 12.288 4.096 12.288 4.096 0 0 0 0 4.096 4.096 0 0 0 4.096 4.096 4.096l122.88 159.744c0 0 0 4.096 4.096 4.096 4.096 4.096 4.096 8.192 4.096 12.288 0 4.096 0 8.192-4.096 8.192l-40.96 40.96c0 0 0 0 0 0-16.384 12.288-24.576 32.768-24.576 53.248 0 20.48 8.192 36.864 20.48 53.248 0 0 0 0 0 4.096 45.056 65.536 102.4 118.784 167.936 167.936 0 0 0 0 0 0 12.288 12.288 32.768 20.48 53.248 20.48 20.48 0 36.864-8.192 53.248-20.48 0 0 0 0 4.096 0l40.96-40.96c4.096 0 4.096-4.096 8.192-4.096 8.192 0 12.288 4.096 12.288 4.096 0 0 4.096 4.096 4.096 4.096l159.744 122.88c0 0 4.096 0 4.096 4.096 0 0 4.096 4.096 4.096 4.096 4.096 4.096 4.096 8.192 4.096 12.288 0 0 0 4.096 0 4.096C901.12 831.488 831.488 905.216 741.376 905.216z" p-id="16798" fill="#737373"></path></svg>