<?xml version="1.0" standalone="no"?><!DOCTYPE svg PUBLIC "-//W3C//DTD SVG 1.1//EN" "http://www.w3.org/Graphics/SVG/1.1/DTD/svg11.dtd"><svg t="1731461421484" class="icon" viewBox="0 0 1024 1024" version="1.1" xmlns="http://www.w3.org/2000/svg" p-id="6289" width="200" height="200" xmlns:xlink="http://www.w3.org/1999/xlink"><path d="M423.628 192c177.63 0 321.63 143.268 321.63 320 0 168.734-131.266 306.968-297.74 319.128a9.556 9.556 0 0 1-3.98 0.872H146.056c-8.432 0-12.556-10.2-6.46-15.98l0.026-0.026 69.302-65.744C143.288 691.67 102 606.632 102 512c0-176.732 144-320 321.628-320z m142.946 355.556H316.42c0 78.546 56 142.22 125.076 142.22 69.08 0 125.08-63.674 125.08-142.22z" p-id="6290" fill="#62ed6b"></path><path d="M763.126 512c-88.816 0-160.814 71.634-160.814 160s72 160 160.814 160c5.652 0 11.238-0.29 16.74-0.856l110.394-0.006c8.43 0 12.554-10.198 6.46-15.98l-25.774-24.45c32.546-29.276 52.994-71.616 52.994-118.708 0-88.366-72-160-160.814-160z" p-id="6291" fill="#62ed6b"></path></svg>